<svg height="512" viewBox="0 0 512 512" width="512" xmlns="http://www.w3.org/2000/svg"><g id="flat"><circle cx="208" cy="208" fill="#5ebef7" r="184"/><circle cx="208" cy="208" fill="#92d1f7" r="152"/><g fill="#5ebef7"><path d="m80 208a8 8 0 0 1 -8 8h-15.79q-.21-3.975-.21-8t.21-8h15.79a8 8 0 0 1 8 8z"/><path d="m117.49 309.82-11.16 11.17a151.123 151.123 0 0 1 -11.32-11.32l11.17-11.16a8 8 0 1 1 11.31 11.31z"/><path d="m117.49 117.49a8 8 0 0 1 -11.31 0l-11.17-11.16a151.123 151.123 0 0 1 11.32-11.32l11.16 11.17a8 8 0 0 1 0 11.31z"/><path d="m216 56.21v15.79a8 8 0 0 1 -16 0v-15.79q3.975-.21 8-.21t8 .21z"/><path d="m216 344v15.79q-3.975.21-8 .21t-8-.21v-15.79a8 8 0 0 1 16 0z"/><path d="m320.99 106.33-11.17 11.16a8 8 0 1 1 -11.31-11.31l11.16-11.17a151.123 151.123 0 0 1 11.32 11.32z"/></g><path d="m336 152v48l32 24v-32h1.242a14.758 14.758 0 0 0 14.758-14.758v-25.242z" fill="#e6a98d"/><path d="m384 281.6-16-9.6-8 48h-72l16-56v-64h32l64 44.8z" fill="#ea9d2d"/><path d="m400 244.8 16 11.2 40-32v-16h24l8 24-46.186 52.784a32.842 32.842 0 0 1 -24.714 11.216 32.85 32.85 0 0 1 -16.9-4.68l-16.2-9.72z" fill="#e6a98d"/><path d="m416 456-16-56-57.845-33.054 11.259-42.146 6.586-4.8 66.937 40.162a30 30 0 0 1 14.442 23.009l6.621 72.829z" fill="#331d06"/><path d="m448 456 23.242 8 .758 24h-56v-32z" fill="#e2e2e2"/><path d="m288 320-8 64h-72l-8 32 89.545 6.888a42.006 42.006 0 0 0 26.518-6.93l.472-.315a42 42 0 0 0 16.174-20.593l27.291-75.05z" fill="#422608"/><path d="m208 384-29.308-6.731-18.692 46.731 24 8 16-16z" fill="#e2e2e2"/><path d="m280 264 24-16v-48h-6.059a24 24 0 0 0 -16.97 7.029l-24.971 24.971z" fill="#ea9d2d"/><path d="m408 144h-16.289a28 28 0 0 0 -55.711 4v12h72a8 8 0 0 0 0-16z" fill="#d18d28"/><path d="m240 320h88a0 0 0 0 1 0 0v58a6 6 0 0 1 -6 6h-76a6 6 0 0 1 -6-6v-58a0 0 0 0 1 0 0z" fill="#d18d28"/><path d="m240 320h88v8h-88z" fill="#c38325"/><path d="m238 288h92a6 6 0 0 1 6 6v26a0 0 0 0 1 0 0h-104a0 0 0 0 1 0 0v-26a6 6 0 0 1 6-6z" fill="#d18d28"/><path d="m160 264a8 8 0 0 1 -5.657-13.657l45.657-45.656v-100.687a8 8 0 0 1 16 0v104a8 8 0 0 1 -2.343 5.657l-48 48a7.976 7.976 0 0 1 -5.657 2.343z" fill="#5ebef7"/><circle cx="208" cy="208" fill="#5ebef7" r="16"/><path d="m256 232-8.793 8.793a24.6 24.6 0 0 0 -7.207 17.4 24.594 24.594 0 0 0 2.6 11l29.4 58.807 16 8 16-16-16-16-8-40z" fill="#e6a98d"/></g></svg>